<?xml version="1.0" standalone="no"?>
<!DOCTYPE svg PUBLIC "-//W3C//DTD SVG 20010904//EN"
 "http://www.w3.org/TR/2001/REC-SVG-20010904/DTD/svg10.dtd">
<svg version="1.0" xmlns="http://www.w3.org/2000/svg"
 width="500.000000pt" height="500.000000pt" viewBox="0 0 500.000000 500.000000"
 preserveAspectRatio="xMidYMid meet">

<g transform="translate(0.000000,500.000000) scale(0.100000,-0.100000)"
fill="#000000" stroke="none">
<path d="M1963 4813 c9 -2 23 -2 30 0 6 3 -1 5 -18 5 -16 0 -22 -2 -12 -5z"/>
<path d="M1870 4798 c-19 -5 -52 -14 -74 -19 -21 -6 -36 -12 -34 -14 2 -2 44
7 93 20 50 13 81 23 70 23 -11 0 -36 -4 -55 -10z"/>
<path d="M2295 4723 c-75 -10 -105 -25 -136 -63 -18 -22 -36 -37 -41 -34 -5 3
-25 -4 -44 -15 -19 -12 -42 -21 -50 -21 -8 0 -14 -4 -14 -9 0 -5 -9 -11 -21
-14 -11 -3 -23 -15 -26 -26 -5 -18 -21 -26 -45 -22 -5 0 -8 -3 -8 -8 0 -5 -15
-11 -32 -15 -65 -13 -166 -53 -340 -135 -237 -113 -443 -256 -624 -436 -245
-242 -443 -636 -521 -1034 -25 -127 -27 -155 -27 -411 0 -304 6 -360 68 -601
53 -204 107 -332 214 -509 124 -206 188 -274 532 -571 237 -204 540 -349 860
-409 117 -22 142 -32 124 -49 -5 -6 -42 -4 -94 4 -486 74 -964 372 -1308 817
-98 127 -204 309 -271 468 -42 99 -116 348 -131 443 -9 57 -16 74 -26 70 -9
-3 -14 2 -14 17 0 27 -18 45 -49 47 -13 1 -28 8 -32 15 -7 10 -9 10 -10 -2
-11 -106 -12 -161 -4 -255 3 -33 10 -73 15 -90 4 -16 11 -48 15 -70 7 -44 43
-164 55 -180 4 -5 19 -44 34 -85 30 -84 119 -254 178 -344 71 -106 224 -290
315 -376 99 -94 186 -170 211 -184 10 -5 39 -27 67 -49 27 -22 59 -43 70 -48
11 -5 43 -28 70 -50 99 -80 430 -225 638 -279 187 -50 635 -92 686 -66 15 8
92 19 181 26 376 28 648 107 940 270 41 24 84 48 95 54 21 11 126 86 135 96 3
3 37 31 75 62 99 80 259 247 340 354 21 27 54 69 74 94 20 25 48 63 62 85 14
22 34 53 45 69 10 16 22 34 26 40 13 20 79 160 100 211 32 78 87 261 108 360
22 96 26 220 10 230 -6 4 -8 15 -5 25 3 9 1 30 -5 45 -9 22 -13 25 -25 15 -8
-7 -12 -17 -9 -22 3 -5 -1 -17 -9 -26 -9 -9 -19 -29 -22 -45 -4 -15 -11 -27
-16 -27 -5 0 -9 -6 -9 -14 0 -7 -9 -25 -21 -40 -11 -14 -18 -30 -14 -36 3 -5
0 -7 -8 -4 -7 2 -14 -1 -14 -8 -2 -30 -55 -209 -84 -283 -50 -128 -174 -362
-247 -465 -96 -135 -328 -365 -487 -483 -177 -131 -382 -236 -610 -311 -140
-46 -312 -71 -303 -45 2 7 53 22 113 35 181 37 355 106 506 199 52 32 108 66
124 75 115 62 429 313 535 428 164 178 316 459 389 720 71 251 97 462 87 697
-19 438 -121 755 -360 1115 -108 162 -198 265 -321 369 -232 194 -470 330
-761 434 -59 21 -89 36 -86 45 2 6 8 10 13 7 5 -4 6 1 3 9 -5 12 -9 13 -25 3
-10 -6 -19 -15 -19 -18 0 -8 -96 13 -106 24 -4 4 0 7 9 7 18 0 23 25 7 35 -5
3 -19 1 -30 -5 -16 -9 -22 -8 -26 4 -3 8 -12 12 -20 9 -8 -3 -21 3 -29 13 -8
11 -14 14 -15 7 0 -21 -28 -15 -35 8 -7 20 -7 20 -21 2 -13 -17 -15 -17 -29 2
-9 12 -25 19 -37 17 -11 -2 -24 1 -28 7 -3 7 -30 14 -60 18 l-53 6 8 -236 c4
-129 4 -245 0 -256 -8 -25 -30 -28 -43 -5 -8 14 -30 15 -164 12 -132 -2 -159
-6 -176 -21 -17 -16 -20 -16 -32 -2 -16 20 -53 471 -40 494 4 9 21 28 37 43
28 27 30 27 173 29 87 1 157 -3 175 -10 28 -10 29 -10 10 4 -40 31 -150 43
-260 28z m-129 -530 c4 -27 17 -68 30 -93 17 -32 24 -61 24 -102 0 -55 -14
-83 -30 -59 -8 14 -38 8 -166 -35 -42 -14 -77 -24 -79 -22 -2 2 1 22 7 44 9
33 8 51 -6 94 -23 71 -44 100 -82 116 -39 16 -58 11 -72 -20 -10 -22 -8 -24
21 -30 44 -9 117 -87 117 -126 0 -25 -4 -30 -24 -30 -28 0 -60 35 -76 86 -14
42 -26 43 -35 4 -9 -41 34 -136 70 -152 l25 -11 -47 -29 c-27 -15 -50 -28 -53
-28 -3 0 -5 29 -6 64 0 43 -8 77 -23 109 -46 96 -141 119 -141 35 0 -19 4 -26
13 -22 37 14 127 -69 127 -118 0 -58 -82 -5 -101 66 -10 38 -12 39 -25 21 -33
-45 -3 -126 64 -171 l32 -22 -25 -16 c-14 -9 -25 -14 -25 -10 0 3 -15 -3 -32
-14 l-33 -21 3 53 c3 48 0 57 -28 90 -18 20 -46 40 -64 45 l-31 8 28 11 c22
10 27 18 27 47 0 41 -6 42 -54 14 -40 -23 -44 -44 -24 -110 8 -30 16 -39 33
-39 12 0 35 -10 50 -21 22 -18 26 -28 22 -53 -12 -70 -22 -91 -55 -120 -20
-17 -54 -48 -76 -68 -23 -21 -48 -38 -57 -38 -8 0 -42 16 -75 36 -32 20 -78
48 -101 61 -60 34 -67 46 -54 85 11 33 117 132 231 214 121 88 327 200 457
250 89 33 240 73 280 74 30 0 32 -2 39 -47z m764 1 c266 -63 420 -136 642
-306 86 -65 97 -92 56 -128 -13 -11 -55 -49 -94 -85 l-71 -65 -82 54 c-93 61
-219 129 -283 152 -181 65 -353 106 -457 109 -59 1 -74 23 -66 94 5 42 13 61
35 81 22 20 31 40 36 80 l7 52 86 -7 c47 -3 133 -17 191 -31z m1004 -386 c0
-38 -7 -55 -41 -100 -52 -69 -144 -163 -253 -260 -68 -59 -97 -78 -145 -93
-33 -10 -80 -29 -104 -42 -44 -24 -64 -26 -37 -4 13 11 12 18 -4 54 -14 30
-16 46 -8 60 8 16 4 25 -21 51 l-31 32 57 11 c67 13 219 76 299 124 30 19 98
75 152 126 114 108 137 115 136 41z m-1629 -38 c-3 -5 -15 -10 -26 -10 -19 0
-146 -32 -182 -46 -25 -9 -21 13 6 27 12 7 40 18 62 25 49 15 149 18 140 4z
m303 -1 c50 -13 70 -24 59 -36 -9 -9 -80 -5 -127 7 -19 4 -57 11 -85 15 -39 6
-46 9 -30 16 30 12 130 11 183 -2z m-1677 -36 c44 -52 319 -206 462 -257 54
-20 103 -39 110 -43 6 -4 22 -7 36 -7 20 -1 27 -10 42 -53 50 -147 140 -258
256 -314 61 -30 77 -34 153 -34 80 0 85 -1 97 -25 7 -14 13 -32 13 -41 0 -9 7
-36 15 -59 18 -52 11 -67 -9 -19 -8 19 -25 44 -39 57 -22 20 -28 22 -45 11
-27 -17 -43 -2 -18 17 18 12 13 14 -45 13 -68 0 -121 12 -147 33 -12 10 -16
10 -19 1 -7 -20 -23 -15 -23 7 0 18 -3 19 -21 9 -18 -9 -24 -8 -31 5 -5 9 -20
16 -32 16 -13 0 -27 7 -30 16 -4 10 -2 13 7 8 13 -8 -30 43 -53 63 -19 16 -72
16 -105 1 -18 -8 -29 -9 -33 -2 -11 17 -102 44 -148 44 -34 0 -44 4 -49 20 -3
11 -12 20 -18 20 -7 0 -41 14 -76 30 -108 52 -271 195 -271 240 0 31 27 24 85
-20 58 -45 213 -140 228 -140 17 0 -15 30 -96 91 -135 100 -256 218 -267 260
-6 20 -7 44 -4 53 8 21 58 21 75 -1z m1594 -30 c51 -27 100 -78 118 -123 8
-19 15 -66 15 -105 l2 -70 -21 25 -20 25 12 -25 c13 -27 13 -110 0 -123 -9 -9
-42 33 -55 67 -14 38 -18 6 -5 -43 18 -72 -1 -87 -26 -21 -22 58 -40 66 -32
15 3 -19 2 -35 -4 -35 -5 0 -9 10 -9 22 0 18 -4 14 -21 -17 -11 -22 -27 -47
-35 -55 -12 -12 -14 -12 -14 3 0 26 -19 20 -30 -9 -14 -37 -13 -49 5 -34 12
10 18 10 30 0 12 -10 19 -6 42 21 16 18 27 37 25 41 -5 18 22 6 41 -18 l21
-27 18 23 c16 20 21 21 33 9 8 -8 25 -43 38 -79 12 -36 30 -76 39 -90 38 -56
78 -161 78 -203 0 -24 5 -48 12 -55 9 -9 9 -20 0 -46 -9 -25 -10 -41 -2 -62 6
-15 8 -46 4 -67 l-6 -39 -30 36 c-16 20 -35 36 -42 36 -7 0 -23 11 -36 26 -18
18 -31 23 -47 19 -16 -4 -23 -1 -23 8 0 8 -9 22 -20 32 -19 17 -20 16 -37 -19
-12 -27 -22 -36 -35 -33 -12 3 -24 -6 -38 -30 -21 -36 -43 -40 -48 -7 -2 13 7
23 28 32 35 16 37 31 12 63 -24 29 -48 20 -57 -20 -8 -37 -24 -50 -37 -27 -11
19 -28 21 -28 3 0 -7 -19 -32 -43 -55 l-43 -43 -14 28 c-22 45 -23 49 -2 26
l20 -23 41 54 40 54 -21 29 c-12 15 -23 30 -24 32 -4 5 -64 -59 -64 -69 0 -6
-4 -10 -9 -10 -5 0 -11 19 -15 42 -6 35 -3 45 19 68 14 15 25 38 25 53 l0 28
-27 -26 c-27 -24 -28 -24 -35 -5 -4 11 -1 37 7 59 11 32 11 40 1 44 -21 8 -26
58 -10 96 8 18 14 43 14 54 0 21 36 67 52 67 5 0 7 -10 3 -22 -5 -20 -1 -18
25 10 17 19 29 37 26 40 -4 3 -12 0 -18 -6 -19 -19 -26 -14 -21 16 l4 27 -29
-34 c-17 -20 -32 -30 -35 -24 -10 16 7 97 26 123 8 12 13 29 10 37 -3 8 10 30
32 53 38 39 39 39 66 23 32 -19 49 -11 33 15 -27 43 -178 59 -235 25 -36 -21
-39 -33 -21 -91 15 -46 -6 -38 -35 14 -46 81 -19 200 58 251 55 37 89 42 224
39 99 -2 127 -6 160 -23z m1403 -77 c12 -59 -185 -273 -286 -311 -30 -11 -58
-26 -64 -32 -6 -7 -21 -13 -34 -13 -13 0 -24 -4 -24 -9 0 -8 -48 -21 -100 -27
-127 -13 -145 -19 -145 -52 0 -14 -8 -16 -40 -14 -31 3 -37 1 -28 -9 14 -14
-4 -39 -23 -32 -6 2 -38 -14 -70 -37 -83 -58 -140 -73 -221 -58 -60 11 -64 10
-87 -11 l-24 -23 9 44 c6 23 17 48 25 55 16 12 52 5 92 -16 33 -18 79 -13 130
13 53 27 136 110 153 153 17 42 39 162 39 211 0 33 4 42 18 42 24 -1 46 -20
66 -58 17 -33 17 -34 -3 -27 -24 7 -29 -12 -6 -21 8 -4 15 -12 15 -20 0 -8 -7
-14 -15 -14 -8 0 -15 -4 -15 -10 0 -5 7 -10 15 -10 8 0 15 -6 15 -14 0 -18
-27 -39 -40 -31 -14 9 -13 -8 2 -23 9 -9 5 -18 -22 -41 -19 -16 -32 -32 -29
-35 11 -11 36 4 47 29 10 22 63 46 115 51 23 2 155 54 185 73 18 11 20 16 10
23 -10 7 -9 12 6 21 109 69 173 118 236 181 74 76 92 85 98 52z m-18 -208 c0
-36 -35 -83 -97 -133 -67 -53 -124 -84 -231 -125 -79 -31 -112 -37 -112 -21 0
6 -37 7 -91 4 -76 -5 -91 -4 -87 8 3 8 27 17 59 22 29 4 72 16 94 26 22 11 51
22 64 26 72 21 264 124 291 155 3 3 20 18 38 33 42 34 72 36 72 5z m-2848
-153 c52 -28 191 -85 205 -85 2 0 3 -5 3 -11 0 -6 -9 -8 -22 -3 -13 3 -19 3
-15 -2 5 -5 25 -9 45 -9 23 0 36 -4 35 -12 -2 -8 6 -9 27 -3 23 7 35 4 54 -11
13 -10 31 -17 39 -13 8 3 42 -2 75 -10 33 -9 75 -16 93 -16 32 -1 33 -1 15
-15 -20 -15 -126 -21 -126 -7 0 4 -41 8 -91 9 -114 3 -191 22 -297 75 -86 42
-132 86 -132 126 0 30 15 28 92 -13z m3283 -65 c0 -38 4 -45 30 -60 17 -9 31
-26 33 -37 3 -17 -4 -21 -42 -25 -24 -3 -58 -15 -74 -27 -17 -11 -33 -21 -36
-21 -3 0 -8 16 -12 36 -3 19 -18 49 -31 65 -26 31 -26 31 28 43 15 3 40 21 55
40 16 19 34 33 39 32 6 -2 10 -22 10 -46z m-499 -22 c-16 -86 -199 -157 -372
-146 -68 4 -87 13 -64 29 11 7 1 9 -33 4 -55 -7 -117 9 -117 31 0 11 -6 13
-22 9 -22 -7 -22 -6 -6 10 15 17 18 17 33 1 48 -47 382 2 521 77 16 9 37 16
48 17 16 0 18 -5 12 -32z m-2704 -97 c46 -11 110 -23 143 -26 89 -9 115 -15
115 -27 0 -8 -33 -9 -102 -5 -71 3 -92 2 -68 -4 53 -14 152 -14 177 -1 16 9
35 9 67 2 25 -5 65 -11 91 -12 25 0 48 -5 51 -9 2 -5 16 -4 30 1 37 14 51 13
34 -4 -26 -23 -102 -48 -113 -37 -7 7 -6 16 4 27 13 16 11 17 -16 10 -67 -15
-85 -17 -213 -23 -112 -5 -139 -3 -180 12 -92 35 -142 82 -115 108 8 9 -2 10
95 -12z m2041 -18 c-5 -14 -71 -38 -80 -29 -4 3 1 6 10 6 9 0 21 9 27 19 11
21 51 25 43 4z m-2543 0 c1 -19 56 -47 87 -45 38 3 42 -9 13 -45 -13 -17 -20
-41 -20 -69 0 -24 -3 -44 -6 -44 -3 0 -17 9 -31 20 -18 14 -41 20 -74 20 -56
0 -65 17 -23 45 24 15 26 22 22 66 -3 27 -3 51 0 54 8 8 32 6 32 -2z m2623
-25 c41 -24 49 -48 15 -48 -21 1 -78 41 -78 55 0 10 40 5 63 -7z m-175 -27 c3
-8 -1 -12 -9 -9 -7 2 -15 10 -17 17 -3 8 1 12 9 9 7 -2 15 -10 17 -17z m442
-5 c36 0 107 4 158 9 96 8 114 1 71 -29 -17 -12 -53 -14 -193 -10 -234 5 -248
7 -231 34 5 8 25 9 69 3 33 -4 90 -8 126 -7z m-624 -8 c4 -6 3 -8 -4 -4 -6 3
-15 -2 -21 -11 -5 -10 -13 -14 -18 -10 -4 5 1 15 11 23 24 17 23 17 32 2z
m144 2 c0 -5 -4 -10 -10 -10 -5 0 -10 5 -10 10 0 6 5 10 10 10 6 0 10 -4 10
-10z m178 -39 c2 -6 -5 -11 -16 -11 -11 0 -22 -5 -24 -11 -2 -5 -11 -7 -21 -3
-12 4 -15 10 -8 18 7 9 6 19 -5 34 l-15 21 43 -19 c23 -10 44 -24 46 -29z
m-1408 31 c0 -10 -22 -32 -32 -32 -13 0 -9 28 5 33 19 8 27 8 27 -1z m1177
-14 c-3 -8 -6 -5 -6 6 -1 11 2 17 5 13 3 -3 4 -12 1 -19z m-1133 -30 c6 -4 7
-11 2 -15 -10 -11 -37 27 -29 40 4 7 8 6 11 -3 3 -8 10 -18 16 -22z m-344 2
c0 -5 -10 -12 -22 -14 -13 -3 -36 -8 -53 -11 -16 -4 -52 -9 -80 -12 -27 -3
-52 -7 -55 -10 -5 -6 79 0 196 13 72 8 94 -8 42 -30 -84 -36 -270 -44 -365
-16 -84 26 -36 60 85 61 42 0 109 6 147 13 89 17 105 18 105 6z m390 -11 c0
-5 -7 -9 -15 -9 -15 0 -20 12 -9 23 8 8 24 -1 24 -14z m1194 6 c8 -8 18 -15
23 -15 4 0 16 -14 25 -30 9 -17 15 -30 12 -30 -14 0 -64 32 -64 40 0 6 -6 10
-13 10 -7 0 -13 9 -14 20 -2 24 10 26 31 5z m454 -1 c78 -6 103 -16 65 -28
-10 -3 1 -3 25 -1 32 4 42 2 42 -9 0 -34 -129 -46 -258 -26 -63 11 -162 54
-162 71 0 9 85 6 288 -7z m-1834 -8 c-3 -8 -17 -22 -30 -31 -21 -14 -25 -14
-30 -1 -3 8 -12 12 -20 9 -8 -3 -14 -1 -14 4 0 19 26 33 62 33 28 0 36 -3 32
-14z m66 4 c0 -5 -2 -10 -4 -10 -3 0 -8 5 -11 10 -3 6 -1 10 4 10 6 0 11 -4
11 -10z m180 6 c0 -3 -4 -8 -10 -11 -5 -3 -10 -1 -10 4 0 6 5 11 10 11 6 0 10
-2 10 -4z m1010 -6 c0 -5 -4 -10 -9 -10 -6 0 -13 5 -16 10 -3 6 1 10 9 10 9 0
16 -4 16 -10z m86 -59 c23 -27 23 -41 -1 -41 -14 0 -65 55 -65 71 0 17 42 -2
66 -30z m240 10 c34 -16 93 -34 139 -41 137 -21 154 -37 64 -58 -66 -16 -221
13 -266 49 -14 12 -18 79 -5 79 5 0 35 -13 68 -29z m-1512 -24 c21 1 8 -14
-14 -17 -20 -3 -60 11 -60 20 0 4 10 14 23 23 20 14 22 13 28 -7 3 -12 13 -20
23 -19z m256 2 c0 -5 -4 -9 -10 -9 -5 0 -10 7 -10 16 0 8 5 12 10 9 6 -3 10
-10 10 -16z m943 -28 c31 -29 34 -41 10 -41 -20 0 -86 74 -76 84 7 6 23 -4 66
-43z m-1383 30 c0 -12 -133 -57 -224 -76 -77 -15 -106 -25 -73 -25 41 0 264
56 343 87 11 4 15 1 12 -13 -2 -10 3 -19 10 -19 29 0 11 -22 -39 -48 -77 -39
-147 -49 -257 -38 -99 11 -112 15 -112 36 0 15 31 26 155 52 44 9 94 25 110
35 31 19 75 24 75 9z m350 1 c0 -10 -22 -32 -32 -32 -5 0 -3 9 4 20 13 20 28
27 28 12z m2331 -47 c12 -26 20 -68 20 -102 1 -36 6 -62 16 -72 24 -24 12
-159 -21 -242 -31 -78 -31 -77 -9 -75 14 1 20 -11 27 -59 11 -76 -1 -138 -49
-242 -54 -118 -129 -187 -231 -213 -48 -12 -53 -17 -74 -64 -13 -28 -25 -54
-28 -58 -2 -5 1 -8 7 -8 7 0 15 10 20 23 19 48 56 75 114 82 107 14 110 3 45
-127 -43 -85 -108 -153 -139 -145 -10 3 -19 1 -19 -3 0 -10 -47 -25 -102 -35
-31 -5 -37 -3 -32 10 3 8 11 15 16 15 6 0 47 17 92 38 80 38 156 94 156 115 0
6 -15 -3 -32 -20 -36 -34 -153 -96 -171 -90 -6 2 9 24 32 50 66 72 37 56 -47
-25 -46 -45 -77 -68 -80 -60 -3 10 -7 10 -18 1 -11 -9 -18 -8 -31 2 -16 13
-17 12 -4 -3 13 -18 11 -20 -18 -22 -8 -1 -16 -7 -19 -15 -3 -8 0 -11 6 -7 15
9 42 -4 42 -20 0 -8 -4 -14 -10 -14 -5 0 -10 4 -10 8 0 4 -9 8 -21 8 -16 0
-19 -5 -15 -22 4 -13 -1 -27 -12 -37 -9 -9 -27 -25 -40 -37 -12 -11 -25 -34
-29 -51 -6 -34 -105 -129 -165 -160 -21 -11 -38 -24 -38 -30 0 -17 30 -69 40
-69 6 0 10 -4 10 -10 0 -5 -11 -10 -24 -10 -14 0 -28 -5 -31 -10 -4 -6 -14 -8
-24 -5 -19 6 -65 -33 -118 -100 -24 -30 -35 -37 -41 -27 -7 10 -12 10 -22 -3
-19 -22 -84 -55 -111 -55 -20 0 -20 2 7 23 45 35 83 80 84 99 0 19 -50 64 -97
86 -47 23 -41 37 15 35 10 -1 10 2 0 16 -7 9 -17 19 -21 22 -5 4 -7 14 -5 23
3 16 7 15 41 -8 46 -31 48 -21 5 21 -33 31 -34 31 -173 37 -77 3 -198 9 -270
12 -92 5 -169 2 -262 -10 -73 -9 -184 -16 -248 -16 -70 0 -115 -4 -115 -10 0
-5 5 -10 10 -10 6 0 10 -10 10 -23 0 -13 5 -28 12 -35 8 -8 8 -15 3 -21 -10
-10 -118 -41 -141 -41 -15 0 -34 76 -34 138 0 38 -5 53 -23 70 l-24 22 -42
-40 c-23 -22 -46 -40 -51 -40 -6 0 -10 18 -10 39 0 46 -15 61 -35 35 -13 -17
-14 -16 -15 18 0 27 -7 42 -27 57 -45 36 -82 37 -158 6 -5 -3 -16 -1 -24 4
-10 7 -11 13 -2 27 10 18 10 18 11 0 0 -18 1 -18 18 -3 28 25 94 21 153 -9 28
-14 53 -23 56 -21 10 10 -36 96 -59 110 -40 26 -86 31 -115 12 -14 -10 -24
-12 -21 -5 2 6 15 19 29 27 53 32 128 -4 188 -91 24 -34 50 -53 143 -99 62
-32 148 -66 192 -77 96 -24 203 -27 208 -6 4 21 102 137 106 127 3 -9 -25 -47
-61 -81 -10 -10 -15 -24 -11 -33 8 -22 23 -22 31 1 4 9 19 37 34 62 14 25 30
58 33 74 8 32 21 26 31 -17 5 -17 3 -27 -4 -27 -6 0 -11 5 -11 12 0 6 -3 8 -7
4 -8 -7 -13 -28 -18 -68 -1 -14 -6 -31 -10 -37 -3 -6 0 -11 8 -11 8 0 15 6 14
13 -1 38 4 67 13 67 6 0 10 -16 10 -35 l0 -35 76 2 c41 1 77 5 80 10 3 5 3 21
-1 36 -6 31 -41 41 -48 14 -3 -9 -5 2 -6 26 -1 39 1 43 19 37 15 -5 20 -2 20
14 0 11 5 23 10 26 8 5 7 12 -2 23 -10 12 -10 16 0 19 6 3 12 13 12 24 0 28
27 23 34 -6 9 -36 33 -42 60 -16 13 12 44 30 70 40 26 9 72 40 102 67 31 27
60 49 65 49 5 0 14 7 19 15 9 13 11 13 21 0 9 -13 10 -12 5 3 -3 10 3 26 14
37 13 13 20 33 20 59 0 22 5 43 11 46 18 12 19 1 5 -58 -7 -31 -13 -57 -12
-57 1 -1 173 -11 234 -14 12 0 22 -5 22 -9 0 -5 -46 -8 -102 -6 -128 2 -171
-6 -183 -34 -6 -12 -25 -27 -43 -33 -19 -6 -56 -29 -82 -52 -27 -23 -52 -42
-56 -42 -5 0 -23 -15 -41 -32 -23 -23 -36 -29 -41 -21 -5 8 -13 9 -22 3 -10
-7 -11 -10 -2 -10 19 0 15 -12 -15 -45 -18 -19 -22 -27 -10 -22 14 5 17 0 17
-26 0 -24 3 -28 10 -17 12 20 21 9 13 -18 -3 -12 -9 -19 -14 -16 -5 3 -9 0 -9
-5 0 -16 11 -14 32 6 17 15 18 15 18 -5 0 -17 8 -22 54 -27 61 -8 76 -3 76 25
0 15 13 23 58 35 205 57 293 93 344 142 57 54 42 -9 -16 -69 -35 -36 -35 -37
-31 -107 4 -63 3 -72 -15 -83 -11 -7 -20 -19 -20 -27 0 -7 -8 -20 -17 -27 -15
-11 -16 -16 -5 -31 7 -10 23 -40 36 -68 l23 -49 17 33 c20 37 13 69 -25 123
l-23 31 22 -5 c11 -3 23 -1 26 6 3 6 5 4 4 -4 -1 -8 8 -33 20 -55 l23 -40 -6
48 c-4 26 -3 47 1 47 4 0 20 -15 36 -32 24 -27 31 -30 38 -18 14 21 12 30 -6
37 -27 10 -66 54 -60 68 2 7 38 34 78 60 102 66 158 113 158 134 0 30 -37 54
-89 59 -66 6 -101 -3 -101 -27 0 -25 28 -92 48 -113 8 -10 10 -18 4 -18 -16 0
-47 49 -61 98 -11 39 -10 46 5 63 18 20 6 27 -14 7 -9 -9 -12 -6 -12 16 0 42
17 66 63 87 82 37 123 19 180 -78 33 -58 65 -85 52 -44 -4 15 1 28 19 46 30
30 31 33 12 54 -7 9 -19 30 -25 46 l-11 30 5 -30 c2 -16 7 -40 11 -52 4 -14 2
-23 -5 -23 -17 0 -41 69 -52 149 -5 41 -12 77 -15 80 -6 6 1 -94 12 -169 l5
-35 -16 28 c-9 15 -18 56 -22 91 -5 61 -4 69 36 148 23 46 61 105 85 131 l43
49 29 -46 c16 -25 32 -46 35 -46 8 0 -5 63 -21 104 -11 30 -13 147 -4 184 4
12 12 22 20 22 9 0 12 8 8 28 -5 28 17 95 36 107 6 4 17 2 24 -4 23 -19 26 12
11 86 -21 99 -19 127 20 243 19 58 37 117 40 133 4 22 11 27 35 27 26 0 34 -9
70 -70 23 -39 46 -85 52 -101 l11 -31 36 68 c63 120 116 194 138 194 8 0 23
-20 34 -45z m-1004 -19 c43 -19 93 -37 111 -41 37 -8 33 -25 -6 -25 -44 0
-160 47 -222 89 -36 25 43 9 117 -23z m-1415 9 c0 -14 -29 -31 -38 -22 -9 8
16 39 28 35 5 -2 10 -8 10 -13z m40 -27 c-7 -7 -12 -8 -12 -2 0 14 12 26 19
19 2 -3 -1 -11 -7 -17z m1271 0 c20 -7 37 -19 37 -25 0 -7 6 -13 13 -13 22 0
137 -59 137 -70 0 -15 -63 -40 -99 -40 -38 0 -135 36 -151 55 -7 8 -17 15 -22
15 -10 0 25 -52 66 -97 l30 -33 -25 0 c-13 1 -42 14 -64 30 -22 16 -51 34 -64
40 -24 11 -58 49 -54 61 4 14 -48 61 -62 56 -7 -3 -16 1 -19 10 -9 21 0 28 17
15 8 -7 17 -9 20 -5 4 3 20 -8 35 -25 20 -22 32 -28 42 -22 8 5 24 7 35 4 17
-4 16 -2 -5 15 -14 11 -22 23 -18 26 6 7 58 -15 138 -60 60 -33 141 -58 153
-46 5 5 -8 12 -32 16 -61 10 -211 88 -211 110 0 9 54 1 103 -17z m-1233 -23
c-12 -15 -40 -21 -40 -9 0 3 10 14 23 24 24 20 37 9 17 -15z m-150 16 c0 -4
-10 -24 -23 -42 -13 -19 -22 -39 -20 -45 7 -20 -146 -104 -187 -104 -23 0 -6
23 37 50 54 34 52 36 -14 14 -58 -20 -145 -23 -151 -6 -4 12 112 72 140 72 7
1 42 16 78 34 61 32 140 47 140 27z m1061 -44 c-12 -12 -31 0 -31 19 0 12 3
12 20 2 11 -7 16 -16 11 -21z m-831 4 c0 -14 -18 -23 -30 -16 -6 4 -8 11 -5
16 8 12 35 12 35 0z m-158 -26 c-3 -20 -1 -24 11 -19 8 3 18 0 22 -6 11 -18
-63 -87 -129 -120 -54 -27 -116 -40 -116 -23 0 10 194 192 206 193 7 0 9 -10
6 -25z m728 -25 c0 -25 -32 -44 -48 -28 -17 17 -15 36 6 41 34 9 42 7 42 -13z
m341 -4 c54 -24 149 -109 149 -133 0 -18 -31 -16 -60 4 -35 24 -150 135 -150
145 0 11 1 11 61 -16z m-801 10 c0 -3 -4 -8 -10 -11 -5 -3 -10 -1 -10 4 0 6 5
11 10 11 6 0 10 -2 10 -4z m-165 -37 c-2 -17 -10 -38 -17 -47 -12 -15 -11 -16
5 -3 9 8 20 11 23 8 10 -10 -89 -108 -103 -103 -8 3 -11 1 -8 -4 4 -6 -10 -10
-34 -10 -23 0 -41 3 -41 7 0 7 171 183 177 183 1 0 0 -14 -2 -31z m925 -43 c0
-3 21 -25 46 -48 39 -36 74 -84 74 -103 0 -31 -130 92 -167 158 -7 12 -12 30
-13 40 0 15 5 13 30 -11 17 -17 30 -33 30 -36z m-1785 4 c7 -25 20 -60 29 -78
9 -18 22 -73 27 -121 9 -80 8 -95 -12 -152 -12 -35 -30 -75 -40 -88 -23 -29
-25 -48 -4 -31 8 7 15 18 15 24 0 7 20 31 44 55 44 43 44 43 56 21 7 -12 12
-38 13 -56 1 -21 4 -29 9 -21 12 18 25 -7 39 -73 14 -65 7 -166 -16 -232 -24
-70 -15 -94 15 -38 12 25 26 56 30 70 l7 25 8 -27 c4 -16 14 -28 21 -28 8 0
20 -12 26 -27 7 -16 25 -44 42 -62 67 -80 95 -226 59 -304 l-18 -39 2 104 c1
96 1 99 -7 38 -4 -36 -13 -77 -19 -92 -11 -29 -6 -58 11 -58 5 0 6 -4 3 -10
-10 -16 66 -142 116 -191 43 -42 118 -93 240 -162 68 -39 73 -47 56 -99 -17
-50 -12 -64 41 -120 33 -34 34 -38 15 -38 -12 0 -25 5 -28 10 -3 6 -16 8 -29
4 -36 -9 -61 28 -60 90 1 35 -1 45 -6 31 -6 -13 -9 -15 -10 -5 0 8 -8 24 -18
35 -25 30 -170 136 -225 165 -26 14 -47 29 -47 33 0 9 10 3 145 -79 39 -23 81
-45 95 -48 24 -7 25 -6 5 10 -11 8 -58 43 -105 76 -118 83 -180 142 -173 166
3 12 -2 22 -12 26 -13 4 -16 2 -11 -9 3 -8 0 -15 -6 -15 -6 0 -8 11 -5 29 6
27 3 30 -21 33 -18 2 -27 8 -26 20 1 10 -2 15 -7 12 -5 -3 -12 3 -16 13 -8 23
-44 63 -56 63 -12 0 -92 80 -92 92 0 5 -31 20 -68 33 -80 28 -76 10 7 -32 28
-14 58 -33 67 -42 9 -9 29 -27 45 -40 16 -14 23 -26 17 -28 -15 -5 -147 42
-193 69 -33 19 -34 19 -17 1 9 -11 51 -37 92 -58 41 -21 75 -39 75 -42 0 -2
-12 -1 -27 3 -55 12 -108 36 -158 72 l-50 37 25 -34 c23 -30 95 -75 160 -99
53 -19 96 -34 125 -43 25 -7 21 -8 -20 -5 -56 5 -202 58 -239 87 -30 24 -93
117 -101 152 -4 16 -2 33 4 41 9 11 4 17 -22 30 -32 15 -68 46 -53 46 11 0 84
-48 91 -60 5 -8 13 -6 26 6 15 14 30 15 95 9 63 -6 77 -10 81 -26 3 -10 9 -19
14 -19 5 0 15 -13 24 -30 17 -32 35 -40 35 -15 0 8 -4 15 -8 15 -5 0 -24 27
-43 60 -24 42 -38 58 -49 53 -40 -16 -200 -1 -242 24 -52 30 -147 234 -152
326 -3 52 11 73 44 64 27 -7 25 8 -9 62 -57 90 -94 218 -71 246 7 8 12 54 14
109 1 73 5 100 18 112 23 23 53 10 87 -39 16 -23 43 -58 60 -77 17 -19 33 -43
37 -52 6 -19 24 -25 24 -8 0 5 9 33 20 63 23 62 85 139 108 135 9 -2 20 -22
27 -48z m1510 39 c4 -6 13 -8 21 -5 14 6 20 -24 7 -37 -7 -8 -53 31 -53 45 0
12 18 10 25 -3z m-269 -47 c-25 -25 -43 -1 -20 27 16 18 19 19 27 5 6 -11 4
-21 -7 -32z m-346 -47 c-30 -48 -13 -44 31 8 53 61 57 40 6 -29 -43 -59 -117
-125 -117 -104 0 23 94 194 98 177 2 -9 -6 -33 -18 -52z m530 45 c0 -5 -7 -10
-16 -10 -8 0 -12 5 -9 10 3 6 10 10 16 10 5 0 9 -4 9 -10z m220 -51 c0 -6 4
-8 10 -4 5 3 7 11 4 18 -3 8 4 13 17 13 15 0 26 -10 36 -33 7 -18 21 -33 30
-33 22 0 81 -62 64 -68 -7 -2 -23 6 -37 19 -25 24 -31 21 -14 -9 12 -21 60
-133 60 -139 0 -3 -7 0 -15 7 -8 7 -15 18 -15 25 0 7 -6 18 -14 24 -8 7 -17
27 -20 46 -6 33 -26 50 -26 23 0 -19 24 -84 36 -99 15 -19 26 -79 14 -79 -5 0
-14 9 -20 20 -6 11 -18 20 -26 20 -13 0 -12 -5 5 -26 12 -15 21 -33 21 -40 0
-8 9 -14 21 -14 34 0 57 -18 85 -67 27 -44 27 -46 9 -59 -27 -20 -31 -18 -49
25 -16 43 -32 55 -83 66 -28 5 -32 4 -27 -9 4 -11 1 -16 -10 -16 -9 0 -16 -4
-16 -10 0 -20 -62 -2 -80 22 -7 10 -50 -2 -50 -13 0 -5 -5 -9 -10 -9 -6 0 -24
-10 -41 -22 -25 -19 -32 -20 -39 -8 -5 8 -5 22 1 33 12 21 95 82 112 82 7 0
19 7 28 15 14 13 14 17 1 33 -14 15 -13 17 1 17 10 0 17 5 17 11 0 5 4 8 10 4
5 -3 7 -12 3 -20 -5 -15 17 -21 29 -9 11 10 -31 44 -46 38 -11 -4 -13 0 -9 15
7 26 17 26 60 0 19 -12 37 -19 40 -15 9 8 -16 62 -38 82 -22 20 -25 39 -5 31
11 -5 12 1 3 29 -6 19 -14 34 -18 34 -17 0 -69 60 -69 80 l0 21 30 -21 c17
-12 30 -26 30 -31z m-500 -9 c5 0 11 6 13 13 4 9 8 8 16 -3 9 -13 12 -13 20
-1 6 10 9 3 9 -23 0 -20 -4 -39 -9 -42 -12 -7 -11 -44 1 -44 6 0 10 4 10 8 0
5 9 19 20 32 24 27 26 17 5 -24 -14 -27 -14 -28 4 -23 13 3 21 -1 24 -15 5
-16 2 -19 -14 -15 -10 3 -22 1 -25 -4 -3 -5 -14 -9 -25 -9 -10 0 -19 -6 -19
-14 0 -7 -18 -26 -40 -41 -23 -16 -45 -35 -51 -44 -14 -23 -3 62 16 123 8 27
15 66 15 87 0 20 3 46 7 56 7 17 8 17 11 1 2 -10 7 -18 12 -18z m380 -12 c0
-15 -28 -8 -34 8 -10 25 4 37 20 17 7 -10 14 -21 14 -25z m-250 22 c0 -5 -5
-10 -11 -10 -5 0 -7 5 -4 10 3 6 8 10 11 10 2 0 4 -4 4 -10z m477 -5 c8 -22
-6 -33 -17 -15 -13 20 -12 30 0 30 6 0 13 -7 17 -15z m-107 -107 c0 -15 -24
-8 -47 14 -13 12 -23 31 -23 42 0 17 4 16 35 -14 19 -19 35 -38 35 -42z m-262
51 c-2 -6 -8 -10 -13 -10 -5 0 -11 4 -13 10 -2 6 4 11 13 11 9 0 15 -5 13 -11z
m62 -40 c0 -5 -4 -9 -10 -9 -5 0 -10 7 -10 16 0 8 5 12 10 9 6 -3 10 -10 10
-16z m-522 -16 c-15 -15 -30 -25 -33 -22 -7 8 33 49 48 49 6 0 -1 -12 -15 -27z
m90 -18 c-6 -14 -17 -25 -25 -25 -19 0 -16 9 10 31 28 24 29 24 15 -6z m612
-25 c0 -5 -4 -10 -10 -10 -5 0 -10 5 -10 10 0 6 5 10 10 10 6 0 10 -4 10 -10z
m-407 -65 c-3 -8 -9 -15 -14 -15 -10 0 -12 24 -3 33 11 11 24 -3 17 -18z m47
-30 c-7 -9 -15 -13 -17 -11 -7 7 7 26 19 26 6 0 6 -6 -2 -15z m-67 -23 c23 1
44 -5 56 -16 11 -10 24 -15 29 -12 5 3 15 -1 22 -9 7 -8 19 -15 28 -15 19 0
102 -85 102 -105 0 -22 -14 -19 -76 16 -55 31 -64 32 -131 13 -18 -5 -23 -2
-23 12 0 13 -3 15 -11 7 -8 -8 -19 -9 -37 -2 -54 21 -104 -9 -117 -68 -8 -38
-15 -40 -39 -14 -17 18 -17 22 2 64 23 52 56 67 152 71 33 1 63 6 67 10 12 12
-20 27 -44 21 -13 -3 -35 -8 -49 -11 l-27 -7 24 32 c12 17 26 27 29 21 3 -5
23 -9 43 -8z m110 -149 c16 -59 17 -91 2 -97 -9 -3 -24 3 -35 14 -19 19 -19
23 -5 56 8 20 15 38 15 40 0 12 19 1 23 -13z m285 -35 c-3 -49 -5 -53 -29 -56
-26 -3 -27 -2 -21 45 5 47 15 63 40 63 9 0 12 -14 10 -52z m225 -52 c18 -7 49
-32 68 -54 l34 -40 30 44 c31 45 65 59 65 26 0 -30 11 -33 39 -11 24 20 26 20
39 2 10 -13 16 -14 19 -5 9 23 34 42 58 42 29 0 51 -51 34 -82 -6 -11 -8 -31
-5 -44 4 -14 2 -24 -4 -24 -5 0 -10 -9 -10 -20 0 -19 -17 -27 -65 -31 -36 -3
-46 1 -39 14 3 6 -12 -8 -35 -33 -22 -25 -41 -48 -41 -52 0 -14 19 -9 27 7 11
18 100 50 167 60 46 7 48 7 41 -14 -3 -11 -3 -21 2 -21 4 0 14 -9 21 -21 11
-18 11 -23 -4 -33 -12 -9 -14 -15 -6 -20 23 -14 12 -26 -23 -26 -28 0 -37 5
-44 23 -8 19 -17 24 -56 26 -26 1 -61 -1 -77 -4 -28 -6 -30 -10 -24 -39 4 -17
16 -39 29 -48 23 -19 9 -24 -21 -9 -9 5 -26 13 -37 16 -20 7 -20 7 -1 14 11 4
15 10 9 14 -5 3 -9 20 -8 37 1 19 -5 36 -14 43 -17 13 -25 48 -12 57 4 3 11
19 15 35 7 29 7 29 -8 10 -8 -11 -16 -26 -16 -32 0 -7 -4 -13 -9 -13 -5 0 -16
-15 -25 -32 -9 -18 -24 -43 -35 -55 -25 -30 -113 -80 -149 -86 -16 -3 -39 -10
-51 -16 -12 -7 -26 -9 -31 -6 -5 3 -11 1 -14 -4 -3 -4 -23 -11 -45 -15 -30 -4
-51 -18 -87 -56 -27 -28 -54 -48 -61 -46 -6 3 -14 0 -16 -7 -3 -8 -13 -4 -29
11 l-26 23 0 -28 c0 -19 10 -37 31 -55 23 -20 27 -28 15 -28 -9 0 -23 6 -30
13 -31 30 -97 77 -107 77 -6 0 -11 -5 -11 -11 0 -8 -4 -8 -13 -1 -12 10 -42 8
-77 -6 -26 -10 -114 -10 -127 0 -7 6 -13 16 -13 24 0 10 12 12 48 8 26 -4 63
-2 82 3 63 17 79 113 18 113 -10 0 -16 5 -13 10 6 10 -6 14 -36 11 -11 -1 -16
5 -15 16 0 10 -7 19 -19 21 -17 4 -18 2 -6 -12 12 -14 11 -16 -5 -16 -11 1
-33 9 -50 18 -17 9 -50 27 -73 40 -55 30 -43 49 12 20 101 -52 115 -51 53 3
-59 52 -76 85 -76 149 0 45 4 56 31 81 77 72 204 61 288 -24 47 -47 91 -128
91 -168 0 -68 40 -110 82 -87 39 22 47 35 58 84 23 104 91 161 200 171 39 4
60 2 60 -5 0 -5 -9 -8 -19 -5 -26 7 -123 -43 -161 -83 -37 -37 -53 -104 -26
-104 21 0 71 25 114 57 22 17 32 32 32 51 0 29 15 60 24 51 3 -3 2 -25 -2 -49
-6 -37 -14 -49 -51 -75 -71 -50 -121 -101 -121 -125 0 -25 -8 -25 115 5 100
24 142 44 175 82 38 42 46 75 31 124 -28 92 -123 146 -208 118 -53 -17 -105
-52 -139 -92 -31 -36 -72 -63 -82 -53 -11 12 122 136 172 161 57 28 128 33
179 11z m-1042 -48 c5 -7 10 -17 12 -23 2 -6 12 -3 23 6 25 20 69 22 84 4 19
-23 31 -18 24 10 -5 21 -3 25 15 25 12 0 21 -5 21 -11 0 -5 -5 -7 -11 -3 -9 5
-10 -12 -5 -66 4 -39 10 -78 13 -86 7 -19 -24 -7 -50 19 -19 19 -20 19 -46
-22 -23 -38 -29 -42 -58 -37 -30 4 -31 3 -20 -15 6 -10 20 -22 29 -25 22 -7
23 -30 2 -38 -8 -3 -12 -10 -9 -16 3 -5 3 -15 -1 -21 -10 -17 -25 12 -17 36 5
19 5 19 -14 2 -11 -9 -23 -14 -28 -10 -4 5 -3 -2 4 -14 13 -25 6 -50 -14 -50
-13 0 -12 3 2 19 13 14 13 18 2 19 -8 1 -24 3 -37 4 -12 1 -25 -2 -28 -6 -7
-12 -41 -11 -49 1 -3 6 1 17 10 26 22 22 14 38 -19 42 -43 5 -24 27 25 28 24
0 59 8 78 16 l34 15 -34 7 c-19 3 -50 9 -69 12 -58 9 -103 66 -64 81 14 5 13
8 -6 23 -19 14 -21 20 -11 38 14 25 26 27 61 7 32 -18 40 -18 40 0 0 7 7 18
16 23 21 11 84 -2 95 -20z m1067 -55 c40 -58 31 -132 -21 -166 -27 -18 -117
-24 -117 -8 0 5 24 17 52 27 70 26 88 58 61 113 -30 60 -11 85 25 34z m-932
-114 c2 -13 6 -41 9 -61 3 -21 1 -38 -4 -38 -5 0 -11 12 -13 27 -2 14 -8 28
-14 30 -14 5 -28 -28 -15 -36 5 -4 4 -13 -4 -24 -12 -16 -13 -16 -19 -1 -14
37 23 139 47 131 6 -2 12 -14 13 -28z m34 -134 c0 -8 -4 -15 -10 -15 -5 0 -10
7 -10 15 0 8 5 15 10 15 6 0 10 -7 10 -15z m-31 -24 c15 -23 15 -24 -7 -10
-12 7 -24 20 -27 27 -8 21 17 9 34 -17z m61 -32 c0 -6 -4 -7 -10 -4 -5 3 -10
11 -10 16 0 6 5 7 10 4 6 -3 10 -11 10 -16z m-269 -13 c5 3 9 0 9 -5 0 -6 -9
-11 -19 -11 -11 0 -21 -6 -24 -12 -2 -7 -8 -10 -12 -6 -5 5 0 17 11 29 10 11
20 16 22 10 2 -6 8 -9 13 -5z m254 -15 c-9 -8 -185 -21 -185 -13 0 1 10 7 23
12 29 12 174 13 162 1z m74 -60 c-7 -2 -20 7 -30 20 -29 37 -22 44 11 12 17
-16 25 -30 19 -32z m-242 13 c-3 -3 -12 -4 -19 -1 -8 3 -5 6 6 6 11 1 17 -2
13 -5z m197 -16 c-3 -5 -12 -4 -20 3 -19 16 -18 18 6 12 11 -3 17 -9 14 -15z
m-44 -5 c0 -5 -11 -9 -25 -9 -14 -1 -25 2 -25 7 0 5 11 9 25 9 14 0 25 -3 25
-7z m1970 -72 c0 -10 -6 -23 -12 -28 -22 -16 -141 -45 -147 -35 -3 5 -26 8
-51 8 -69 -1 -64 18 6 27 34 4 88 16 120 26 76 25 84 25 84 2z m-2345 -71 c3
-5 2 -10 -4 -10 -5 0 -12 4 -16 9 -3 5 -19 13 -36 16 -22 5 -28 10 -18 15 13
9 62 -11 74 -30z m755 -25 c0 -8 -4 -17 -10 -20 -6 -4 -10 5 -10 20 0 15 4 24
10 20 6 -3 10 -12 10 -20z m151 2 c-10 -9 -11 -8 -5 6 3 10 9 15 12 12 3 -3 0
-11 -7 -18z m-1407 -24 c28 -9 45 -18 38 -21 -7 -2 -27 1 -44 7 -39 14 -51 14
-42 0 4 -8 0 -8 -15 0 -26 14 -29 46 -4 37 9 -4 39 -14 67 -23z m2549 -18 c-5
-13 -23 -22 -23 -11 0 15 14 35 21 31 4 -3 6 -12 2 -20z m-379 -30 l6 -30 -14
25 c-8 14 -12 28 -9 33 7 11 9 7 17 -28z m-800 -46 c-8 -13 -21 -3 -27 22 -5
20 -5 20 13 4 11 -10 17 -22 14 -26z m-1324 11 c0 -5 -4 -10 -10 -10 -5 0 -10
5 -10 10 0 6 5 10 10 10 6 0 10 -4 10 -10z m989 -205 c-7 -6 -230 -52 -223
-46 6 7 181 49 208 50 11 1 17 -1 15 -4z m-302 -107 c1 -14 24 -43 57 -73 31
-28 56 -54 56 -58 0 -18 -51 -4 -89 23 -49 36 -55 48 -47 95 8 39 21 47 23 13z
m125 -39 c50 -39 62 -43 168 -58 36 -5 81 -16 100 -25 l35 -15 -38 6 c-37 5
-38 5 -31 -21 8 -32 -4 -33 -62 -7 -23 10 -59 22 -82 26 -29 5 -56 21 -101 62
-34 30 -61 61 -61 69 0 18 7 14 72 -37z m1072 -2 c-8 -23 -77 -68 -118 -77
-61 -13 -42 12 35 50 38 18 73 38 76 43 8 13 14 2 7 -16z m-716 -42 c-3 -3 -9
2 -12 12 -6 14 -5 15 5 6 7 -7 10 -15 7 -18z m493 -15 c10 -6 19 -16 19 -23
-1 -10 -57 -42 -114 -66 -6 -2 7 11 27 29 20 17 37 41 37 51 0 22 4 23 31 9z
m-462 -100 c1 -9 -9 -4 -26 14 -17 19 -23 31 -15 34 7 2 12 11 13 20 1 19 27
-44 28 -68z m789 68 c-3 -7 -15 -14 -29 -16 -23 -2 -23 -2 -5 13 24 18 39 20
34 3z m-852 -109 c11 -19 -29 7 -51 32 l-20 23 32 -23 c18 -12 35 -27 39 -32z
m432 -244 c64 -54 89 -82 79 -91 -20 -21 -170 109 -182 159 -4 15 -4 39 0 55
7 26 8 25 21 -21 12 -39 27 -57 82 -102z m-402 50 c-9 -13 -32 -37 -53 -52
-20 -15 -58 -48 -85 -72 -26 -24 -51 -42 -54 -39 -14 14 27 64 87 108 38 27
78 64 91 81 18 24 24 27 26 14 2 -9 -3 -27 -12 -40z m409 -133 c-5 -6 -45 23
-50 36 -3 7 8 3 24 -10 15 -13 27 -24 26 -26z"/>
<path d="M2890 4150 c0 -11 -4 -20 -10 -20 -5 0 -10 -11 -10 -25 0 -14 5 -25
10 -25 17 0 11 -20 -15 -45 -15 -16 -36 -25 -55 -25 -32 0 -38 -8 -18 -28 16
-16 51 -15 92 2 24 10 38 25 47 50 8 23 19 36 31 36 22 0 22 3 3 -50 -16 -46
-20 -100 -7 -100 22 0 52 34 52 59 0 15 7 51 15 79 9 29 13 57 10 62 -3 6 -26
10 -51 10 -37 0 -44 3 -44 20 0 15 -7 20 -25 20 -18 0 -25 -5 -25 -20z"/>
<path d="M3083 4048 c-39 -23 -43 -41 -9 -32 l25 6 -14 -46 c-8 -25 -19 -55
-25 -66 -14 -25 -7 -50 14 -50 9 0 25 33 45 93 17 50 31 98 31 105 0 18 -30
13 -67 -10z"/>
<path d="M3202 4004 c-45 -27 -49 -44 -7 -36 l26 5 -14 -34 c-53 -122 -51
-112 -31 -126 27 -19 41 -1 70 92 38 122 29 143 -44 99z"/>
<path d="M3310 3960 c-26 -50 -25 -84 1 -126 22 -36 16 -41 -25 -23 -20 9 -29
9 -41 -1 -8 -7 -15 -16 -15 -20 0 -14 98 -41 137 -38 48 4 57 35 19 66 -15 11
-26 22 -26 24 0 3 19 5 43 4 23 0 50 3 60 6 21 9 23 56 3 84 -12 15 -18 17
-33 8 -10 -7 -17 -21 -16 -33 2 -18 -3 -21 -32 -21 -43 0 -50 12 -31 52 21 40
20 45 -4 51 -16 4 -25 -3 -40 -33z"/>
<path d="M3466 3467 c-107 -51 -124 -68 -65 -61 61 7 195 91 177 110 -2 1 -52
-21 -112 -49z"/>
<path d="M3424 3385 c-17 -13 -17 -14 -2 -15 9 0 20 5 23 11 11 17 0 20 -21 4z"/>
<path d="M1315 3440 c3 -5 8 -10 11 -10 2 0 4 5 4 10 0 6 -5 10 -11 10 -5 0
-7 -4 -4 -10z"/>
<path d="M1250 3405 c0 -12 47 -58 73 -72 38 -19 145 -53 168 -53 21 0 25 15
7 23 -7 3 -65 28 -128 56 -121 54 -120 54 -120 46z"/>
<path d="M1450 3400 c0 -5 5 -10 11 -10 5 0 7 5 4 10 -3 6 -8 10 -11 10 -2 0
-4 -4 -4 -10z"/>
<path d="M1490 3350 c0 -5 5 -10 10 -10 6 0 10 5 10 10 0 6 -4 10 -10 10 -5 0
-10 -4 -10 -10z"/>
<path d="M1270 3282 c0 -17 23 -29 115 -62 103 -36 153 -45 175 -31 13 9 12
12 -5 25 -11 9 -27 16 -35 16 -13 0 -151 34 -227 56 -13 4 -23 2 -23 -4z"/>
<path d="M2300 3621 c0 -14 41 -41 62 -41 10 0 18 7 18 15 0 8 7 15 15 15 9 0
12 -6 9 -15 -4 -8 -2 -15 4 -15 11 0 23 36 14 44 -9 10 -122 6 -122 -3z"/>
<path d="M2160 3606 c0 -2 7 -6 15 -10 8 -3 15 -1 15 4 0 6 -7 10 -15 10 -8 0
-15 -2 -15 -4z"/>
<path d="M2230 3589 c-8 -4 -24 -11 -35 -15 -14 -5 2 -10 50 -14 39 -4 88 -11
110 -15 55 -11 42 -2 -40 28 -43 15 -76 21 -85 16z"/>
<path d="M2457 3385 c-4 -8 -2 -17 3 -20 6 -4 10 3 10 14 0 25 -6 27 -13 6z"/>
<path d="M2326 3218 c-14 -23 -23 -44 -21 -46 4 -5 74 70 75 81 1 22 -32 1
-54 -35z"/>
<path d="M2500 3030 c6 -11 16 -20 22 -20 6 0 3 9 -7 20 -10 11 -20 20 -22 20
-2 0 1 -9 7 -20z"/>
<path d="M2604 3021 c20 -22 26 -25 26 -13 0 4 -10 13 -22 21 -23 14 -23 14
-4 -8z"/>
<path d="M2655 3030 c3 -5 11 -10 16 -10 6 0 7 5 4 10 -3 6 -11 10 -16 10 -6
0 -7 -4 -4 -10z"/>
<path d="M2300 2979 c0 -11 5 -17 10 -14 6 3 10 13 10 21 0 8 -4 14 -10 14 -5
0 -10 -9 -10 -21z"/>
<path d="M2415 2950 c9 -29 24 -50 36 -50 18 0 8 27 -17 51 l-26 24 7 -25z"/>
<path d="M2540 2931 c0 -22 15 -35 30 -26 7 4 7 13 0 26 -14 25 -30 25 -30 0z"/>
<path d="M2350 2875 c-11 -13 -9 -19 10 -40 33 -35 49 -16 23 25 -17 28 -21
29 -33 15z"/>
<path d="M2712 2873 c2 -10 11 -19 21 -21 21 -4 13 24 -9 32 -11 4 -14 1 -12
-11z"/>
<path d="M2483 2844 c-3 -8 0 -27 6 -41 11 -24 12 -25 31 -8 18 16 18 19 2 41
-20 28 -30 30 -39 8z"/>
<path d="M2603 2844 c-7 -18 6 -45 24 -51 17 -6 24 26 10 47 -14 24 -26 25
-34 4z"/>
<path d="M2675 2770 c-8 -24 1 -41 19 -34 7 3 19 -2 26 -11 16 -19 40 -20 40
-1 0 12 -60 66 -74 66 -2 0 -7 -9 -11 -20z"/>
<path d="M3515 3190 c-3 -6 1 -7 9 -4 18 7 21 14 7 14 -6 0 -13 -4 -16 -10z"/>
<path d="M3473 3073 c15 -2 37 -2 50 0 12 2 0 4 -28 4 -27 0 -38 -2 -22 -4z"/>
<path d="M3435 2820 c28 -12 47 -12 40 0 -3 6 -18 10 -33 9 -24 0 -25 -1 -7
-9z"/>
<path d="M3881 2414 c0 -11 3 -14 6 -6 3 7 2 16 -1 19 -3 4 -6 -2 -5 -13z"/>
<path d="M3960 2427 c0 -15 48 -103 70 -127 14 -17 9 -2 -15 45 -37 69 -55 96
-55 82z"/>
<path d="M4187 2355 c-45 -44 -58 -65 -38 -65 8 0 32 28 84 98 18 24 1 11 -46
-33z"/>
<path d="M3890 2379 c0 -14 46 -89 55 -89 3 0 -42 87 -52 99 -2 2 -3 -2 -3
-10z"/>
<path d="M3890 2276 c0 -2 8 -10 18 -17 15 -13 16 -12 3 4 -13 16 -21 21 -21
13z"/>
<path d="M3842 2220 c0 -14 2 -19 5 -12 2 6 2 18 0 25 -3 6 -5 1 -5 -13z"/>
<path d="M3940 2212 c0 -11 5 -24 10 -27 6 -3 10 -15 10 -25 0 -24 18 -36 26
-17 3 8 -6 31 -20 52 -21 30 -26 34 -26 17z"/>
<path d="M4010 2210 c0 -5 5 -10 10 -10 6 0 10 5 10 10 0 6 -4 10 -10 10 -5 0
-10 -4 -10 -10z"/>
<path d="M3851 2164 c0 -11 3 -14 6 -6 3 7 2 16 -1 19 -3 4 -6 -2 -5 -13z"/>
<path d="M4116 2164 c-11 -30 -6 -37 14 -19 11 10 20 22 20 27 0 15 -28 9 -34
-8z"/>
<path d="M3866 2110 c4 -14 17 -47 29 -75 12 -27 25 -57 28 -65 4 -11 5 -9 6
5 0 11 -16 52 -35 90 -19 39 -31 59 -28 45z"/>
<path d="M3780 2077 c0 -13 11 -61 25 -108 18 -65 31 -91 56 -113 22 -19 34
-25 37 -17 2 7 -5 19 -16 27 -34 23 -59 75 -77 157 -17 78 -25 95 -25 54z"/>
<path d="M4204 2013 c-41 -38 -166 -113 -188 -113 -7 0 -17 -5 -24 -12 -47
-47 56 -16 138 41 47 33 99 82 111 104 14 25 8 22 -37 -20z"/>
<path d="M4074 2006 c-12 -11 -27 -32 -34 -46 -10 -20 -4 -17 29 15 39 37 51
56 34 54 -5 -1 -17 -11 -29 -23z"/>
<path d="M3697 1903 c-9 -15 -37 -117 -37 -135 0 -10 3 -18 8 -18 9 0 32 94
32 129 0 16 4 21 15 17 8 -3 15 -1 15 4 0 12 -27 13 -33 3z"/>
<path d="M3926 1855 c4 -8 10 -15 15 -15 5 0 9 7 9 15 0 8 -7 15 -15 15 -9 0
-12 -6 -9 -15z"/>
<path d="M3887 1797 c-11 -29 -9 -43 4 -30 6 6 9 19 7 29 -3 18 -4 18 -11 1z"/>
<path d="M3817 1756 c-3 -22 -4 -42 -1 -45 9 -9 44 39 43 58 0 10 -2 11 -6 4
-7 -19 -21 -16 -25 5 -2 9 -7 -1 -11 -22z"/>
<path d="M3637 1679 c4 -13 8 -18 11 -10 2 7 -1 18 -6 23 -8 8 -9 4 -5 -13z"/>
<path d="M3721 1649 c-1 -9 -4 -31 -7 -48 -4 -18 -2 -31 4 -31 14 0 22 50 12
74 -7 16 -9 17 -9 5z"/>
<path d="M3650 1623 c0 -10 5 -25 10 -33 8 -12 10 -9 10 12 0 15 -4 30 -10 33
-5 3 -10 -2 -10 -12z"/>
<path d="M2975 1560 c-3 -5 -1 -10 4 -10 6 0 11 5 11 10 0 6 -2 10 -4 10 -3 0
-8 -4 -11 -10z"/>
<path d="M3430 1538 c-18 -13 -38 -31 -44 -40 -17 -28 2 -33 27 -7 38 39 66
52 83 38 19 -16 30 -4 14 16 -17 21 -41 19 -80 -7z"/>
<path d="M3463 1507 c-4 -8 -17 -17 -28 -22 -17 -7 -12 -10 27 -19 26 -6 53
-17 60 -23 6 -7 18 -13 25 -13 8 0 -2 19 -24 45 -40 48 -48 52 -60 32z m24
-19 c-3 -8 -6 -5 -6 6 -1 11 2 17 5 13 3 -3 4 -12 1 -19z"/>
<path d="M3530 1492 c0 -12 19 -26 26 -19 2 2 -2 10 -11 17 -9 8 -15 8 -15 2z"/>
<path d="M3660 1410 c0 -5 5 -10 10 -10 6 0 10 5 10 10 0 6 -4 10 -10 10 -5 0
-10 -4 -10 -10z"/>
<path d="M3525 1301 c-38 -37 -81 -74 -93 -83 -13 -9 -22 -24 -20 -33 2 -15
14 -10 68 27 62 42 127 123 119 147 -2 6 -35 -20 -74 -58z"/>
<path d="M2656 1304 c-17 -16 -22 -54 -8 -54 5 0 13 16 19 35 12 39 11 42 -11
19z"/>
<path d="M3035 1256 c-135 -27 -140 -66 -9 -66 54 0 66 7 83 53 12 31 14 31
-74 13z"/>
<path d="M2670 1229 c0 -5 5 -7 10 -4 6 3 10 8 10 11 0 2 -4 4 -10 4 -5 0 -10
-5 -10 -11z"/>
<path d="M3210 961 c0 -12 5 -21 10 -21 6 0 10 6 10 14 0 8 -4 18 -10 21 -5 3
-10 -3 -10 -14z"/>
<path d="M1111 2286 c-6 -29 -21 -71 -31 -92 -28 -53 -24 -67 4 -21 23 37 54
152 44 162 -3 3 -10 -19 -17 -49z"/>
<path d="M1021 2284 c0 -11 3 -14 6 -6 3 7 2 16 -1 19 -3 4 -6 -2 -5 -13z"/>
<path d="M849 2187 c16 -20 81 -60 123 -76 22 -8 26 -8 21 4 -3 8 -11 15 -17
15 -14 0 -80 33 -116 57 -24 17 -24 17 -11 0z"/>
<path d="M1141 2084 c0 -11 3 -14 6 -6 3 7 2 16 -1 19 -3 4 -6 -2 -5 -13z"/>
<path d="M960 2068 c0 -14 23 -58 32 -58 4 0 8 3 8 8 -1 9 -39 59 -40 50z"/>
<path d="M900 1949 c0 -21 188 -201 206 -197 30 5 19 22 -42 62 -32 21 -83 63
-111 92 -29 30 -53 49 -53 43z"/>
<path d="M1145 1907 c-4 -10 -5 -21 -1 -24 10 -10 18 4 13 24 -4 17 -4 17 -12
0z"/>
<path d="M1242 1875 c-6 -17 -19 -41 -29 -54 -16 -22 -16 -23 3 -19 12 2 24
18 32 42 15 47 10 73 -6 31z"/>
<path d="M870 1825 c39 -50 125 -98 195 -108 22 -4 33 -4 25 0 -8 3 -22 11
-30 18 -8 7 -30 16 -48 20 -18 4 -56 22 -84 41 -72 49 -75 50 -58 29z"/>
<path d="M1214 1766 c-22 -17 -11 -35 13 -20 19 12 29 34 16 34 -5 0 -18 -6
-29 -14z"/>
<path d="M1246 1711 c-3 -5 1 -14 9 -21 12 -10 15 -10 15 3 0 19 -16 31 -24
18z"/>
<path d="M1269 1592 c6 -12 16 -24 22 -28 8 -4 8 -1 0 14 -6 12 -16 24 -22 28
-8 4 -8 1 0 -14z"/>
<path d="M1330 1600 c0 -5 5 -10 10 -10 6 0 10 -8 10 -18 0 -10 7 -27 15 -38
16 -21 16 -24 0 49 -5 25 -35 40 -35 17z"/>
<path d="M1392 1560 c0 -14 2 -19 5 -12 2 6 2 18 0 25 -3 6 -5 1 -5 -13z"/>
<path d="M1401 1514 c0 -11 3 -14 6 -6 3 7 2 16 -1 19 -3 4 -6 -2 -5 -13z"/>
<path d="M2794 2276 c-8 -21 11 -37 41 -34 21 3 19 23 -3 23 -7 0 -17 7 -22
15 -8 12 -10 12 -16 -4z"/>
<path d="M2270 2525 c-7 -9 -10 -18 -7 -21 3 -3 10 4 17 15 13 25 8 27 -10 6z"/>
<path d="M2260 2435 c0 -8 -4 -15 -10 -15 -5 0 -10 -7 -10 -16 0 -11 6 -14 23
-9 31 10 51 36 34 47 -19 12 -37 9 -37 -7z"/>
<path d="M2197 2000 c-16 -5 -35 -14 -43 -21 -16 -13 -20 -54 -4 -44 6 4 5 -5
-2 -19 -39 -86 94 -221 209 -214 40 2 49 7 51 24 4 30 -19 44 -121 74 l-92 26
-5 63 c-5 57 -3 62 16 67 12 3 33 4 45 2 23 -3 23 -4 -6 -18 -34 -17 -47 -68
-22 -89 20 -16 187 -65 195 -57 3 4 -2 20 -11 35 -22 38 -23 58 -2 41 13 -11
14 -10 10 2 -3 8 -22 20 -41 27 -19 7 -38 19 -41 27 -3 8 -14 14 -24 14 -10 0
-19 5 -19 10 0 11 45 9 56 -3 4 -4 14 -7 22 -7 8 0 30 -11 49 -26 43 -32 43
-17 -1 27 -52 54 -149 80 -219 59z"/>
<path d="M2111 1890 c0 -14 4 -32 9 -40 9 -13 10 -13 9 0 -1 8 -5 26 -9 40
l-8 25 -1 -25z"/>
<path d="M3310 1740 c0 -5 9 -10 20 -10 11 0 20 5 20 10 0 6 -9 10 -20 10 -11
0 -20 -4 -20 -10z"/>
<path d="M2560 1634 c0 -8 5 -12 10 -9 6 4 8 11 5 16 -9 14 -15 11 -15 -7z"/>
<path d="M2375 1620 c-3 -5 -1 -10 5 -10 6 0 16 -13 21 -29 14 -40 35 -46 44
-14 3 14 4 28 0 31 -3 3 -5 -1 -5 -9 -1 -12 -3 -11 -13 1 -23 29 -45 42 -52
30z"/>
<path d="M2501 1605 c-1 -13 19 -35 31 -35 4 0 8 5 8 10 0 6 -6 10 -14 10 -8
0 -17 6 -19 13 -3 6 -6 7 -6 2z"/>
<path d="M2590 1580 c0 -5 -8 -10 -17 -10 -13 0 -14 -3 -5 -12 8 -8 15 -8 27
2 17 14 20 30 5 30 -5 0 -10 -4 -10 -10z"/>
<path d="M2367 1574 c-8 -8 1 -24 14 -24 5 0 9 7 9 15 0 15 -12 20 -23 9z"/>
<path d="M2468 1556 c-3 -14 -1 -26 4 -26 14 0 22 30 11 41 -7 7 -12 2 -15
-15z"/>
<path d="M1866 1925 c4 -8 12 -15 20 -15 19 0 18 16 -2 24 -22 9 -24 8 -18 -9z"/>
<path d="M2362 4555 l-22 -45 -60 0 c-33 0 -60 -2 -60 -4 0 -3 14 -25 30 -50
l31 -45 -26 -40 c-14 -22 -25 -45 -25 -51 0 -5 23 -10 53 -10 52 0 52 0 76
-45 13 -25 27 -45 31 -45 5 0 20 20 34 45 27 45 27 45 81 45 30 0 55 2 55 6 0
3 -11 22 -25 42 -14 20 -25 42 -25 50 0 7 11 30 25 52 14 22 25 42 25 44 0 3
-26 6 -57 8 -56 3 -58 4 -81 46 -13 23 -27 42 -31 42 -4 0 -17 -20 -29 -45z
m78 -115 c21 -29 21 -31 3 -60 -14 -25 -24 -30 -54 -30 -31 0 -38 4 -49 30
-22 52 0 81 67 89 6 0 21 -12 33 -29z"/>
<path d="M1850 4560 c0 -6 -14 -17 -30 -24 -17 -7 -27 -15 -24 -19 4 -4 12 -3
18 2 18 13 56 20 62 10 10 -16 24 -9 17 9 -10 27 -43 44 -43 22z"/>
<path d="M3025 4520 c-3 -5 -2 -10 4 -10 5 0 13 5 16 10 3 6 2 10 -4 10 -5 0
-13 -4 -16 -10z"/>
<path d="M1658 4503 c7 -3 16 -2 19 1 4 3 -2 6 -13 5 -11 0 -14 -3 -6 -6z"/>
<path d="M1614 4484 c-18 -14 -18 -15 4 -4 12 6 22 13 22 15 0 8 -5 6 -26 -11z"/>
<path d="M1683 4463 c9 -2 23 -2 30 0 6 3 -1 5 -18 5 -16 0 -22 -2 -12 -5z"/>
</g>
</svg>
